<?xml version="1.0" encoding="UTF-8"?>
<svg xmlns="http://www.w3.org/2000/svg" xmlns:xlink="http://www.w3.org/1999/xlink" width="154px" height="90px" viewBox="0 0 154 90" version="1.1">
<g id="surface1">
<path style=" stroke:none;fill-rule:nonzero;fill:rgb(14.901961%,20.784314%,46.27451%);fill-opacity:1;" d="M 3.539062 75.878906 L 4.609375 75.878906 L 6.992188 82.339844 L 5.683594 82.339844 L 5.085938 80.785156 L 2.941406 80.785156 L 2.347656 82.339844 L 1.039062 82.339844 Z M 4.96875 79.828125 L 4.132812 77.3125 L 3.179688 79.828125 Z M 4.96875 79.828125 "/>
<path style=" stroke:none;fill-rule:nonzero;fill:rgb(14.901961%,20.784314%,46.27451%);fill-opacity:1;" d="M 7.707031 82.339844 L 7.707031 75.878906 L 8.894531 75.878906 L 8.894531 81.261719 L 12.109375 81.261719 L 12.109375 82.339844 Z M 7.707031 82.339844 "/>
<path style=" stroke:none;fill-rule:nonzero;fill:rgb(14.901961%,20.784314%,46.27451%);fill-opacity:1;" d="M 12.945312 82.339844 L 12.945312 75.878906 L 14.136719 75.878906 L 14.136719 82.339844 Z M 12.945312 82.339844 "/>
<path style=" stroke:none;fill-rule:nonzero;fill:rgb(14.901961%,20.784314%,46.27451%);fill-opacity:1;" d="M 20.800781 82.339844 L 20.800781 78.03125 L 19.136719 81.261719 L 18.421875 81.261719 L 16.753906 78.03125 L 16.753906 82.339844 L 15.5625 82.339844 L 15.5625 75.878906 L 16.875 75.878906 L 18.777344 79.585938 L 20.683594 75.878906 L 21.992188 75.878906 L 21.992188 82.339844 Z M 20.800781 82.339844 "/>
<path style=" stroke:none;fill-rule:nonzero;fill:rgb(14.901961%,20.784314%,46.27451%);fill-opacity:1;" d="M 27.828125 81.261719 L 27.828125 82.339844 L 23.421875 82.339844 L 23.421875 75.878906 L 27.828125 75.878906 L 27.828125 76.953125 L 24.730469 76.953125 L 24.730469 78.511719 L 27.46875 78.511719 L 27.46875 79.46875 L 24.730469 79.46875 L 24.730469 81.144531 Z M 27.828125 81.261719 "/>
<path style=" stroke:none;fill-rule:nonzero;fill:rgb(14.901961%,20.784314%,46.27451%);fill-opacity:1;" d="M 29.96875 78.152344 L 29.96875 82.222656 L 28.78125 82.222656 L 28.78125 75.757812 L 29.730469 75.757812 L 33.066406 79.945312 L 33.066406 75.757812 L 34.257812 75.757812 L 34.257812 82.222656 L 33.304688 82.222656 Z M 29.96875 78.152344 "/>
<path style=" stroke:none;fill-rule:nonzero;fill:rgb(14.901961%,20.784314%,46.27451%);fill-opacity:1;" d="M 40.449219 76.953125 L 38.421875 76.953125 L 38.421875 82.339844 L 37.234375 82.339844 L 37.234375 76.953125 L 35.210938 76.953125 L 35.210938 75.878906 L 40.566406 75.878906 Z M 40.449219 76.953125 "/>
<path style=" stroke:none;fill-rule:nonzero;fill:rgb(14.901961%,20.784314%,46.27451%);fill-opacity:1;" d="M 42.472656 75.878906 L 43.542969 75.878906 L 45.925781 82.339844 L 44.613281 82.339844 L 44.019531 80.785156 L 41.875 80.785156 L 41.28125 82.339844 L 39.972656 82.339844 Z M 43.902344 79.828125 L 43.066406 77.3125 L 42.113281 79.828125 Z M 43.902344 79.828125 "/>
<path style=" stroke:none;fill-rule:nonzero;fill:rgb(14.901961%,20.784314%,46.27451%);fill-opacity:1;" d="M 51.878906 82.339844 L 51.878906 78.03125 L 50.210938 81.261719 L 49.496094 81.261719 L 47.828125 78.03125 L 47.828125 82.339844 L 46.640625 82.339844 L 46.640625 75.878906 L 47.949219 75.878906 L 49.855469 79.585938 L 51.757812 75.878906 L 53.070312 75.878906 L 53.070312 82.339844 Z M 51.878906 82.339844 "/>
<path style=" stroke:none;fill-rule:nonzero;fill:rgb(14.901961%,20.784314%,46.27451%);fill-opacity:1;" d="M 57.234375 82.339844 C 56.789062 82.328125 56.347656 82.25 55.925781 82.101562 C 55.585938 81.890625 55.269531 81.652344 54.972656 81.382812 C 54.707031 81.066406 54.503906 80.699219 54.378906 80.304688 C 54.242188 79.921875 54.160156 79.515625 54.140625 79.109375 C 54.152344 78.699219 54.230469 78.292969 54.378906 77.914062 C 54.53125 77.503906 54.773438 77.132812 55.09375 76.835938 C 55.324219 76.496094 55.65625 76.246094 56.046875 76.117188 C 56.464844 75.96875 56.910156 75.886719 57.355469 75.878906 C 57.800781 75.898438 58.238281 75.980469 58.664062 76.117188 C 59.003906 76.328125 59.320312 76.566406 59.617188 76.835938 C 59.859375 77.167969 60.058594 77.527344 60.210938 77.914062 C 60.347656 78.296875 60.429688 78.699219 60.449219 79.109375 C 60.441406 79.519531 60.359375 79.921875 60.210938 80.304688 C 60.058594 80.6875 59.859375 81.050781 59.617188 81.382812 C 59.351562 81.6875 59.027344 81.929688 58.664062 82.101562 C 58.210938 82.277344 57.722656 82.359375 57.234375 82.339844 Z M 55.332031 79.109375 C 55.3125 79.394531 55.351562 79.679688 55.449219 79.945312 L 55.808594 80.664062 C 55.949219 80.886719 56.15625 81.054688 56.402344 81.144531 C 56.910156 81.464844 57.558594 81.464844 58.070312 81.144531 C 58.3125 81.054688 58.523438 80.886719 58.664062 80.664062 L 59.023438 79.945312 C 59.128906 79.679688 59.167969 79.394531 59.140625 79.109375 C 59.160156 78.824219 59.121094 78.539062 59.023438 78.269531 L 58.664062 77.554688 C 58.523438 77.332031 58.3125 77.164062 58.070312 77.074219 C 57.804688 76.96875 57.519531 76.925781 57.234375 76.953125 C 56.941406 76.960938 56.65625 77.042969 56.402344 77.195312 C 56.15625 77.285156 55.949219 77.453125 55.808594 77.671875 L 55.449219 78.390625 C 55.351562 78.617188 55.3125 78.863281 55.332031 79.109375 Z M 55.332031 79.109375 "/>
<path style=" stroke:none;fill-rule:nonzero;fill:rgb(14.901961%,20.784314%,46.27451%);fill-opacity:1;" d="M 65.09375 77.554688 C 65.03125 77.488281 64.945312 77.445312 64.855469 77.433594 C 64.738281 77.3125 64.617188 77.3125 64.5 77.195312 C 64.359375 77.097656 64.191406 77.054688 64.023438 77.074219 C 63.785156 77.074219 63.664062 76.953125 63.425781 76.953125 C 63.167969 76.9375 62.910156 77.023438 62.710938 77.195312 C 62.585938 77.324219 62.503906 77.492188 62.472656 77.671875 C 62.457031 77.804688 62.503906 77.9375 62.59375 78.03125 L 62.832031 78.269531 C 62.949219 78.390625 63.070312 78.390625 63.308594 78.511719 C 63.546875 78.628906 63.664062 78.628906 63.902344 78.628906 C 64.183594 78.695312 64.464844 78.773438 64.738281 78.871094 C 64.949219 78.960938 65.148438 79.082031 65.332031 79.230469 C 65.449219 79.347656 65.6875 79.585938 65.6875 79.707031 C 65.785156 79.933594 65.828125 80.179688 65.808594 80.425781 C 65.800781 80.71875 65.71875 81.007812 65.570312 81.261719 C 65.441406 81.484375 65.28125 81.6875 65.09375 81.863281 L 64.378906 82.222656 C 64.074219 82.324219 63.75 82.367188 63.425781 82.339844 C 62.941406 82.320312 62.464844 82.238281 62 82.101562 C 61.539062 81.953125 61.101562 81.75 60.6875 81.503906 L 61.285156 80.425781 L 61.523438 80.664062 C 61.640625 80.785156 61.878906 80.785156 62 80.902344 C 62.117188 81.023438 62.355469 81.023438 62.59375 81.144531 C 62.820312 81.242188 63.0625 81.28125 63.308594 81.261719 C 64.023438 81.261719 64.378906 81.023438 64.378906 80.546875 C 64.394531 80.414062 64.351562 80.28125 64.261719 80.1875 C 64.140625 80.066406 64.023438 79.945312 63.902344 79.945312 C 63.785156 79.945312 63.546875 79.828125 63.425781 79.707031 C 63.175781 79.683594 62.929688 79.601562 62.710938 79.46875 C 62.429688 79.40625 62.152344 79.324219 61.878906 79.230469 C 61.640625 79.109375 61.523438 78.988281 61.285156 78.871094 C 61.136719 78.734375 61.015625 78.570312 60.925781 78.390625 C 60.820312 78.210938 60.777344 78 60.808594 77.792969 C 60.816406 77.496094 60.898438 77.210938 61.046875 76.953125 C 61.136719 76.707031 61.300781 76.496094 61.523438 76.355469 L 62.234375 75.996094 C 62.542969 75.894531 62.867188 75.851562 63.1875 75.878906 C 63.597656 75.886719 64 75.96875 64.378906 76.117188 C 64.707031 76.253906 65.027344 76.414062 65.332031 76.597656 Z M 65.09375 77.554688 "/>
<path style=" stroke:none;fill-rule:nonzero;fill:rgb(14.901961%,20.784314%,46.27451%);fill-opacity:1;" d="M 71.640625 81.261719 C 71.878906 81.261719 72.238281 81.261719 72.355469 81.023438 C 72.570312 80.929688 72.738281 80.757812 72.832031 80.546875 C 72.980469 80.335938 73.066406 80.085938 73.070312 79.828125 C 73.070312 79.585938 73.191406 79.347656 73.191406 79.109375 L 73.191406 75.878906 L 74.378906 75.878906 L 74.378906 79.109375 C 74.40625 79.511719 74.367188 79.917969 74.261719 80.304688 C 74.175781 80.65625 74.015625 80.984375 73.785156 81.261719 C 73.535156 81.53125 73.253906 81.773438 72.953125 81.980469 C 72.109375 82.300781 71.175781 82.300781 70.332031 81.980469 C 69.980469 81.847656 69.683594 81.59375 69.5 81.261719 C 69.246094 80.953125 69.082031 80.582031 69.023438 80.1875 C 68.929688 79.792969 68.890625 79.390625 68.902344 78.988281 L 68.902344 75.757812 L 70.09375 75.757812 L 70.09375 78.988281 C 70.085938 79.273438 70.125 79.558594 70.214844 79.828125 C 70.238281 80.082031 70.320312 80.328125 70.453125 80.546875 C 70.546875 80.757812 70.714844 80.929688 70.929688 81.023438 C 71.117188 81.207031 71.378906 81.296875 71.640625 81.261719 Z M 71.640625 81.261719 "/>
<path style=" stroke:none;fill-rule:nonzero;fill:rgb(14.901961%,20.784314%,46.27451%);fill-opacity:1;" d="M 77 78.152344 L 77 82.222656 L 75.808594 82.222656 L 75.808594 75.757812 L 76.761719 75.757812 L 80.09375 79.945312 L 80.09375 75.757812 L 81.285156 75.757812 L 81.285156 82.222656 L 80.332031 82.222656 Z M 77 78.152344 "/>
<path style=" stroke:none;fill-rule:nonzero;fill:rgb(14.901961%,20.784314%,46.27451%);fill-opacity:1;" d="M 89.976562 82.339844 L 89.976562 78.03125 L 88.3125 81.261719 L 87.597656 81.261719 L 85.929688 78.03125 L 85.929688 82.339844 L 84.738281 82.339844 L 84.738281 75.878906 L 86.046875 75.878906 L 87.953125 79.585938 L 89.859375 75.878906 L 91.167969 75.878906 L 91.167969 82.339844 Z M 89.976562 82.339844 "/>
<path style=" stroke:none;fill-rule:nonzero;fill:rgb(14.901961%,20.784314%,46.27451%);fill-opacity:1;" d="M 95.214844 81.261719 C 95.453125 81.261719 95.8125 81.261719 95.929688 81.023438 C 96.144531 80.929688 96.3125 80.757812 96.40625 80.546875 C 96.558594 80.335938 96.640625 80.085938 96.644531 79.828125 C 96.644531 79.585938 96.765625 79.347656 96.765625 79.109375 L 96.765625 75.878906 L 97.953125 75.878906 L 97.953125 79.109375 C 97.980469 79.511719 97.941406 79.917969 97.835938 80.304688 C 97.75 80.65625 97.589844 80.984375 97.359375 81.261719 C 97.109375 81.53125 96.828125 81.773438 96.527344 81.980469 C 96.121094 82.183594 95.667969 82.269531 95.214844 82.222656 C 94.769531 82.210938 94.328125 82.128906 93.90625 81.980469 C 93.554688 81.847656 93.257812 81.59375 93.074219 81.261719 C 92.820312 80.953125 92.65625 80.582031 92.597656 80.1875 C 92.503906 79.792969 92.464844 79.390625 92.476562 78.988281 L 92.476562 75.757812 L 93.667969 75.757812 L 93.667969 78.988281 C 93.660156 79.273438 93.699219 79.558594 93.789062 79.828125 C 93.8125 80.082031 93.894531 80.328125 94.027344 80.546875 C 94.121094 80.757812 94.289062 80.929688 94.503906 81.023438 C 94.691406 81.207031 94.953125 81.296875 95.214844 81.261719 Z M 95.214844 81.261719 "/>
<path style=" stroke:none;fill-rule:nonzero;fill:rgb(14.901961%,20.784314%,46.27451%);fill-opacity:1;" d="M 100.574219 78.152344 L 100.574219 82.222656 L 99.382812 82.222656 L 99.382812 75.757812 L 100.335938 75.757812 L 103.671875 79.945312 L 103.671875 75.757812 L 104.859375 75.757812 L 104.859375 82.222656 L 103.90625 82.222656 Z M 100.574219 78.152344 "/>
<path style=" stroke:none;fill-rule:nonzero;fill:rgb(14.901961%,20.784314%,46.27451%);fill-opacity:1;" d="M 106.171875 82.339844 L 106.171875 75.878906 L 108.550781 75.878906 C 109.035156 75.898438 109.515625 75.980469 109.980469 76.117188 C 110.367188 76.246094 110.703125 76.496094 110.933594 76.835938 C 111.222656 77.132812 111.429688 77.503906 111.527344 77.914062 C 111.664062 78.296875 111.746094 78.699219 111.765625 79.109375 C 111.753906 79.558594 111.675781 80 111.527344 80.425781 C 111.277344 81.15625 110.707031 81.730469 109.980469 81.980469 C 109.558594 82.128906 109.117188 82.210938 108.671875 82.222656 Z M 110.457031 79.109375 C 110.484375 78.824219 110.445312 78.535156 110.335938 78.269531 L 109.980469 77.554688 C 109.839844 77.332031 109.628906 77.164062 109.386719 77.074219 C 109.121094 76.96875 108.835938 76.925781 108.550781 76.953125 L 107.480469 76.953125 L 107.480469 81.144531 L 108.550781 81.144531 C 108.835938 81.171875 109.121094 81.132812 109.386719 81.023438 C 109.628906 80.933594 109.839844 80.765625 109.980469 80.546875 C 110.125 80.320312 110.242188 80.078125 110.335938 79.828125 C 110.335938 79.707031 110.457031 79.347656 110.457031 79.109375 Z M 110.457031 79.109375 "/>
<path style=" stroke:none;fill-rule:nonzero;fill:rgb(14.901961%,20.784314%,46.27451%);fill-opacity:1;" d="M 115.339844 82.339844 C 114.890625 82.328125 114.449219 82.25 114.027344 82.101562 C 113.691406 81.890625 113.371094 81.652344 113.074219 81.382812 C 112.808594 81.066406 112.605469 80.699219 112.480469 80.304688 C 112.34375 79.921875 112.265625 79.515625 112.242188 79.109375 C 112.253906 78.699219 112.332031 78.292969 112.480469 77.914062 C 112.632812 77.503906 112.878906 77.132812 113.195312 76.835938 C 113.425781 76.496094 113.761719 76.246094 114.148438 76.117188 C 114.570312 75.96875 115.011719 75.886719 115.457031 75.878906 C 115.902344 75.898438 116.34375 75.980469 116.765625 76.117188 C 117.105469 76.328125 117.425781 76.566406 117.71875 76.835938 C 117.960938 77.167969 118.164062 77.527344 118.316406 77.914062 C 118.449219 78.296875 118.53125 78.699219 118.554688 79.109375 C 118.542969 79.519531 118.460938 79.921875 118.316406 80.304688 C 118.164062 80.6875 117.960938 81.050781 117.71875 81.382812 C 117.457031 81.6875 117.128906 81.929688 116.765625 82.101562 C 116.316406 82.296875 115.828125 82.378906 115.339844 82.339844 Z M 113.550781 79.109375 C 113.53125 79.394531 113.574219 79.679688 113.671875 79.945312 L 114.027344 80.664062 C 114.167969 80.886719 114.378906 81.054688 114.625 81.144531 C 115.132812 81.460938 115.78125 81.460938 116.289062 81.144531 C 116.535156 81.054688 116.746094 80.886719 116.886719 80.664062 L 117.242188 79.945312 C 117.347656 79.679688 117.390625 79.394531 117.363281 79.109375 C 117.382812 78.824219 117.339844 78.539062 117.242188 78.269531 L 116.886719 77.554688 C 116.746094 77.332031 116.535156 77.164062 116.289062 77.074219 C 116.027344 76.96875 115.742188 76.925781 115.457031 76.953125 C 115.164062 76.960938 114.875 77.042969 114.625 77.195312 C 114.378906 77.285156 114.167969 77.453125 114.027344 77.671875 L 113.671875 78.390625 C 113.574219 78.617188 113.535156 78.863281 113.550781 79.109375 Z M 113.550781 79.109375 "/>
<path style=" stroke:none;fill-rule:nonzero;fill:rgb(14.901961%,20.784314%,46.27451%);fill-opacity:1;" d="M 126.886719 82.339844 L 126.886719 78.03125 L 125.21875 81.261719 L 124.507812 81.261719 L 122.839844 78.03125 L 122.839844 82.339844 L 121.648438 82.339844 L 121.648438 75.878906 L 122.957031 75.878906 L 124.863281 79.585938 L 126.769531 75.878906 L 128.078125 75.878906 L 128.078125 82.339844 Z M 126.886719 82.339844 "/>
<path style=" stroke:none;fill-rule:nonzero;fill:rgb(14.901961%,20.784314%,46.27451%);fill-opacity:1;" d="M 133.910156 81.261719 L 133.910156 82.339844 L 129.507812 82.339844 L 129.507812 75.878906 L 133.910156 75.878906 L 133.910156 76.953125 L 130.816406 76.953125 L 130.816406 78.511719 L 133.554688 78.511719 L 133.554688 79.46875 L 130.816406 79.46875 L 130.816406 81.144531 Z M 133.910156 81.261719 "/>
<path style=" stroke:none;fill-rule:nonzero;fill:rgb(14.901961%,20.784314%,46.27451%);fill-opacity:1;" d="M 134.507812 81.023438 C 134.625 81.023438 134.746094 81.144531 134.984375 81.261719 C 135.207031 81.359375 135.453125 81.402344 135.699219 81.382812 C 135.902344 81.414062 136.113281 81.371094 136.292969 81.261719 L 136.648438 80.902344 C 136.757812 80.679688 136.800781 80.433594 136.769531 80.1875 L 136.769531 75.996094 L 137.960938 75.996094 L 137.960938 79.230469 C 137.984375 79.671875 137.945312 80.113281 137.839844 80.546875 C 137.832031 80.933594 137.707031 81.308594 137.484375 81.621094 C 137.308594 81.917969 137.0625 82.164062 136.769531 82.339844 C 136.351562 82.5 135.90625 82.582031 135.460938 82.578125 C 134.960938 82.589844 134.46875 82.464844 134.03125 82.222656 Z M 134.507812 81.023438 "/>
<path style=" stroke:none;fill-rule:nonzero;fill:rgb(14.901961%,20.784314%,46.27451%);fill-opacity:1;" d="M 142.007812 82.339844 C 141.5625 82.328125 141.121094 82.25 140.699219 82.101562 C 140.359375 81.890625 140.042969 81.652344 139.746094 81.382812 C 139.476562 81.066406 139.277344 80.699219 139.152344 80.304688 C 139.015625 79.921875 138.933594 79.515625 138.914062 79.109375 C 138.921875 78.699219 139.003906 78.292969 139.152344 77.914062 C 139.300781 77.503906 139.546875 77.132812 139.863281 76.835938 C 140.09375 76.496094 140.429688 76.246094 140.816406 76.117188 C 141.238281 75.96875 141.679688 75.886719 142.128906 75.878906 C 142.570312 75.898438 143.011719 75.980469 143.4375 76.117188 C 143.773438 76.328125 144.09375 76.566406 144.390625 76.835938 C 144.632812 77.167969 144.832031 77.527344 144.984375 77.914062 C 145.121094 78.296875 145.199219 78.699219 145.222656 79.109375 C 145.210938 79.519531 145.132812 79.921875 144.984375 80.304688 C 144.832031 80.6875 144.632812 81.050781 144.390625 81.382812 C 144.125 81.6875 143.800781 81.929688 143.4375 82.101562 C 142.984375 82.289062 142.496094 82.371094 142.007812 82.339844 Z M 140.101562 79.109375 C 140.082031 79.394531 140.125 79.679688 140.222656 79.945312 L 140.578125 80.664062 C 140.71875 80.886719 140.929688 81.054688 141.175781 81.144531 C 141.683594 81.460938 142.332031 81.460938 142.839844 81.144531 C 143.085938 81.054688 143.296875 80.886719 143.4375 80.664062 L 143.792969 79.945312 C 143.902344 79.679688 143.941406 79.394531 143.914062 79.109375 C 143.933594 78.824219 143.890625 78.539062 143.792969 78.269531 L 143.4375 77.554688 C 143.296875 77.332031 143.085938 77.164062 142.839844 77.074219 C 142.578125 76.96875 142.292969 76.925781 142.007812 76.953125 C 141.714844 76.960938 141.425781 77.042969 141.175781 77.195312 C 140.929688 77.285156 140.71875 77.453125 140.578125 77.671875 L 140.222656 78.390625 C 140.222656 78.628906 140.101562 78.871094 140.101562 79.109375 Z M 140.101562 79.109375 "/>
<path style=" stroke:none;fill-rule:nonzero;fill:rgb(14.901961%,20.784314%,46.27451%);fill-opacity:1;" d="M 146.054688 82.339844 L 146.054688 75.878906 L 148.914062 75.878906 C 149.203125 75.902344 149.488281 75.984375 149.746094 76.117188 C 149.992188 76.207031 150.203125 76.375 150.34375 76.597656 C 150.542969 76.804688 150.703125 77.046875 150.820312 77.3125 C 150.914062 77.539062 150.957031 77.785156 150.9375 78.03125 C 150.929688 78.457031 150.808594 78.871094 150.582031 79.230469 C 150.394531 79.558594 150.101562 79.8125 149.746094 79.945312 L 151.175781 82.339844 L 149.746094 82.339844 L 148.4375 80.1875 L 147.246094 80.1875 L 147.246094 82.339844 Z M 147.367188 79.109375 L 148.914062 79.109375 C 149.042969 79.125 149.175781 79.082031 149.269531 78.988281 C 149.390625 78.871094 149.507812 78.871094 149.507812 78.75 C 149.601562 78.652344 149.644531 78.523438 149.628906 78.390625 C 149.628906 78.269531 149.746094 78.152344 149.746094 78.03125 C 149.761719 77.898438 149.71875 77.769531 149.628906 77.671875 C 149.628906 77.554688 149.507812 77.433594 149.390625 77.3125 L 149.152344 77.074219 C 149.03125 77.074219 148.914062 76.953125 148.792969 76.953125 L 147.246094 76.953125 Z M 147.367188 79.109375 "/>
<path style=" stroke:none;fill-rule:nonzero;fill:rgb(100%,100%,100%);fill-opacity:1;" d="M 17.230469 7.300781 C -6.699219 22.140625 6.871094 66.0625 6.871094 67.140625 C 37.234375 46.675781 110.457031 75.519531 134.984375 62.234375 C 159.152344 49.070312 145.699219 6.105469 145.699219 6.105469 C 108.195312 25.132812 40.328125 -7.0625 17.230469 7.300781 Z M 17.230469 7.300781 "/>
<path style=" stroke:none;fill-rule:nonzero;fill:rgb(14.901961%,20.784314%,46.27451%);fill-opacity:1;" d="M 147.007812 4.667969 L 136.53125 1.195312 L 136.175781 1.195312 L 135.816406 1.078125 C 127.246094 8.855469 111.648438 9.574219 94.027344 8.257812 C 86.285156 7.660156 78.191406 6.703125 70.09375 5.625 C 64.378906 5.027344 58.546875 4.308594 52.832031 3.828125 C 52.507812 3.84375 52.1875 3.800781 51.878906 3.710938 C 51.28125 3.710938 50.566406 3.589844 49.972656 3.589844 C 43.542969 2.992188 37.472656 2.632812 31.875 2.632812 C 16.160156 2.992188 4.371094 10.652344 1.515625 32.554688 L 1.515625 33.03125 C -0.628906 50.503906 4.609375 68.9375 5.207031 69.296875 C 5.324219 69.296875 5.324219 69.414062 5.445312 69.414062 L 14.136719 71.089844 L 14.253906 71.089844 C 14.386719 71.105469 14.515625 71.0625 14.613281 70.972656 C 26.515625 60.078125 54.378906 62.953125 81.167969 65.703125 C 94.976562 67.261719 109.148438 68.695312 120.816406 68.21875 C 122.71875 68.097656 124.507812 67.980469 126.292969 67.738281 C 141.175781 65.464844 149.03125 56.011719 150.820312 38.539062 C 152.84375 20.464844 147.367188 4.90625 147.007812 4.667969 M 16.875 8.019531 C 39.972656 -6.222656 107.957031 25.613281 145.105469 6.820312 C 145.105469 6.820312 158.558594 49.070312 134.386719 61.996094 C 109.980469 75.160156 36.636719 46.675781 6.277344 66.902344 C 6.515625 65.945312 -6.9375 22.621094 16.875 8.019531 M 101.050781 66.421875 C 101.527344 66.421875 102.242188 66.542969 102.71875 66.542969 C 102.242188 66.542969 101.527344 66.421875 101.050781 66.421875 "/>
<path style=" stroke:none;fill-rule:nonzero;fill:rgb(90.196078%,14.509804%,18.823529%);fill-opacity:1;" d="M 37.351562 36.742188 C 39.269531 35.476562 40.398438 33.300781 40.328125 30.996094 C 40.328125 25.972656 37.113281 23.335938 30.804688 23.335938 L 17.230469 23.335938 L 17.230469 52.777344 L 31.28125 52.777344 C 36.042969 52.777344 41.636719 50.503906 41.636719 44.042969 C 41.636719 40.453125 40.210938 38.058594 37.351562 36.742188 M 30.445312 46.675781 L 24.492188 46.675781 L 24.492188 29.320312 L 29.613281 29.320312 C 32.828125 29.320312 33.183594 30.636719 33.183594 31.953125 C 33.183594 33.75 32.113281 34.707031 30.089844 34.707031 L 28.304688 34.707031 L 25.804688 40.09375 L 30.566406 40.09375 C 33.183594 40.09375 34.257812 41.171875 34.257812 43.445312 C 34.496094 44.878906 33.898438 46.675781 30.445312 46.675781 "/>
<path style=" stroke:none;fill-rule:nonzero;fill:rgb(90.196078%,14.509804%,18.823529%);fill-opacity:1;" d="M 43.425781 23.335938 L 50.804688 23.335938 L 50.804688 52.777344 L 43.425781 52.777344 Z M 43.425781 23.335938 "/>
<path style=" stroke:none;fill-rule:nonzero;fill:rgb(90.196078%,14.509804%,18.823529%);fill-opacity:1;" d="M 68.425781 39.855469 L 64.738281 23.21875 L 53.1875 23.21875 L 53.1875 52.539062 L 60.449219 52.539062 L 60.449219 34.585938 L 64.738281 52.539062 L 72.117188 52.539062 L 76.40625 34.347656 L 76.40625 52.539062 L 83.667969 52.539062 L 83.667969 23.21875 L 72.117188 23.21875 Z M 68.425781 39.855469 "/>
<path style=" stroke:none;fill-rule:nonzero;fill:rgb(90.196078%,14.509804%,18.823529%);fill-opacity:1;" d="M 106.527344 36.863281 C 108.445312 35.597656 109.574219 33.421875 109.503906 31.117188 C 109.503906 26.089844 106.289062 23.457031 99.980469 23.457031 L 86.40625 23.457031 L 86.40625 52.898438 L 100.457031 52.898438 C 105.21875 52.898438 110.8125 50.625 110.8125 44.164062 C 111.007812 41.074219 109.308594 38.183594 106.527344 36.863281 M 99.621094 46.796875 L 93.667969 46.796875 L 93.667969 29.679688 L 98.789062 29.679688 C 102.003906 29.679688 102.359375 30.996094 102.359375 32.3125 C 102.359375 34.109375 101.289062 35.066406 99.265625 35.066406 L 97.597656 35.066406 L 94.859375 40.453125 L 99.621094 40.453125 C 102.242188 40.453125 103.3125 41.527344 103.3125 43.804688 C 103.550781 45.121094 103.074219 46.796875 99.621094 46.796875 "/>
<path style=" stroke:none;fill-rule:nonzero;fill:rgb(90.196078%,14.509804%,18.823529%);fill-opacity:1;" d="M 126.410156 22.980469 C 118.324219 22.980469 111.765625 29.570312 111.765625 37.699219 C 111.765625 45.828125 118.324219 52.421875 126.410156 52.421875 C 134.5 52.421875 141.054688 45.828125 141.054688 37.699219 C 141.058594 33.792969 139.515625 30.046875 136.769531 27.285156 C 134.023438 24.527344 130.296875 22.976562 126.410156 22.980469 M 126.410156 45.480469 C 122.136719 45.480469 118.671875 41.996094 118.671875 37.699219 C 118.671875 33.402344 122.136719 29.921875 126.410156 29.921875 C 130.683594 29.921875 134.148438 33.402344 134.148438 37.699219 C 134.148438 41.996094 130.683594 45.480469 126.410156 45.480469 "/>
<path style=" stroke:none;fill-rule:nonzero;fill:rgb(14.901961%,20.784314%,46.27451%);fill-opacity:1;" d="M 26.875 19.507812 C 26.25 19.871094 25.5625 20.113281 24.851562 20.226562 C 24.144531 20.363281 23.425781 20.445312 22.707031 20.464844 C 21.980469 20.464844 21.253906 20.339844 20.5625 20.105469 C 19.972656 19.859375 19.410156 19.539062 18.898438 19.148438 C 18.4375 18.710938 18.070312 18.179688 17.824219 17.59375 C 17.351562 16.277344 17.351562 14.839844 17.824219 13.523438 C 18.070312 12.9375 18.4375 12.40625 18.898438 11.96875 C 19.382812 11.535156 19.949219 11.210938 20.5625 11.011719 C 21.296875 10.785156 22.058594 10.664062 22.828125 10.652344 C 23.546875 10.660156 24.265625 10.738281 24.96875 10.890625 C 25.585938 11.089844 26.152344 11.417969 26.636719 11.847656 L 25.207031 13.402344 C 24.9375 13.136719 24.613281 12.933594 24.253906 12.804688 C 23.796875 12.648438 23.3125 12.566406 22.828125 12.566406 C 22.417969 12.578125 22.015625 12.660156 21.636719 12.804688 C 20.910156 13.058594 20.339844 13.632812 20.089844 14.363281 C 19.941406 14.742188 19.859375 15.148438 19.851562 15.558594 C 19.859375 15.96875 19.941406 16.371094 20.089844 16.753906 C 20.339844 17.484375 20.910156 18.058594 21.636719 18.3125 C 22.019531 18.449219 22.421875 18.527344 22.828125 18.550781 C 23.226562 18.578125 23.628906 18.535156 24.015625 18.429688 C 24.304688 18.332031 24.582031 18.214844 24.851562 18.070312 L 24.851562 16.515625 L 23.066406 16.515625 L 23.066406 14.601562 L 26.875 14.601562 Z M 26.875 19.507812 "/>
<path style=" stroke:none;fill-rule:nonzero;fill:rgb(14.901961%,20.784314%,46.27451%);fill-opacity:1;" d="M 28.183594 10.890625 L 31.996094 10.890625 C 32.472656 10.871094 32.953125 10.910156 33.421875 11.011719 C 33.84375 11.097656 34.25 11.257812 34.613281 11.488281 C 34.949219 11.707031 35.230469 11.992188 35.445312 12.328125 C 35.648438 12.734375 35.730469 13.191406 35.683594 13.644531 C 35.710938 14.238281 35.542969 14.828125 35.210938 15.320312 C 34.832031 15.800781 34.269531 16.105469 33.660156 16.15625 L 36.160156 20.105469 L 33.542969 20.105469 L 31.519531 16.394531 L 30.445312 16.394531 L 30.445312 20.105469 L 28.304688 20.105469 L 28.304688 10.890625 Z M 30.328125 14.722656 L 32.234375 14.722656 C 32.4375 14.738281 32.644531 14.699219 32.828125 14.601562 C 32.945312 14.480469 33.183594 14.480469 33.304688 14.242188 C 33.414062 14.0625 33.453125 13.851562 33.421875 13.644531 C 33.453125 13.4375 33.414062 13.222656 33.304688 13.046875 L 32.945312 12.6875 C 32.808594 12.589844 32.636719 12.546875 32.46875 12.566406 L 30.445312 12.566406 L 30.445312 14.722656 Z M 30.328125 14.722656 "/>
<path style=" stroke:none;fill-rule:nonzero;fill:rgb(14.901961%,20.784314%,46.27451%);fill-opacity:1;" d="M 44.734375 16.636719 C 44.722656 17.164062 44.640625 17.683594 44.496094 18.191406 C 44.328125 18.628906 44.089844 19.035156 43.78125 19.386719 C 43.410156 19.761719 42.964844 20.046875 42.472656 20.226562 C 41.886719 20.363281 41.289062 20.445312 40.6875 20.464844 C 40.082031 20.460938 39.484375 20.378906 38.898438 20.226562 C 38.421875 20.019531 37.980469 19.734375 37.589844 19.386719 C 37.242188 19.066406 36.996094 18.652344 36.875 18.191406 C 36.730469 17.683594 36.648438 17.164062 36.636719 16.636719 L 36.636719 10.890625 L 38.78125 10.890625 L 38.78125 16.515625 C 38.761719 16.800781 38.800781 17.085938 38.898438 17.355469 C 38.992188 17.566406 39.113281 17.769531 39.257812 17.953125 C 39.40625 18.136719 39.617188 18.265625 39.851562 18.3125 C 40.117188 18.417969 40.402344 18.460938 40.6875 18.429688 C 40.96875 18.449219 41.253906 18.410156 41.519531 18.3125 C 41.734375 18.21875 41.933594 18.097656 42.113281 17.953125 C 42.234375 17.710938 42.472656 17.59375 42.472656 17.355469 C 42.578125 17.089844 42.621094 16.800781 42.589844 16.515625 L 42.589844 10.890625 L 44.734375 10.890625 Z M 44.734375 16.636719 "/>
<path style=" stroke:none;fill-rule:nonzero;fill:rgb(14.901961%,20.784314%,46.27451%);fill-opacity:1;" d="M 46.164062 10.890625 L 49.734375 10.890625 C 50.214844 10.871094 50.695312 10.910156 51.164062 11.011719 C 51.585938 11.097656 51.988281 11.257812 52.355469 11.488281 C 52.6875 11.707031 52.972656 11.992188 53.1875 12.328125 C 53.390625 12.734375 53.472656 13.191406 53.425781 13.644531 C 53.425781 14.09375 53.347656 14.539062 53.1875 14.960938 C 53.011719 15.289062 52.769531 15.574219 52.472656 15.796875 C 52.109375 16.027344 51.703125 16.191406 51.28125 16.277344 C 50.8125 16.375 50.332031 16.414062 49.855469 16.394531 L 48.304688 16.394531 L 48.304688 19.988281 L 46.164062 19.988281 Z M 48.304688 14.839844 L 50.328125 14.839844 C 50.449219 14.839844 50.6875 14.722656 50.804688 14.722656 L 51.164062 14.363281 C 51.269531 14.183594 51.3125 13.96875 51.28125 13.761719 C 51.3125 13.554688 51.269531 13.34375 51.164062 13.164062 C 51.027344 13.015625 50.867188 12.894531 50.6875 12.804688 C 50.503906 12.710938 50.296875 12.667969 50.09375 12.6875 L 48.425781 12.6875 L 48.425781 14.839844 Z M 48.304688 14.839844 "/>
<path style=" stroke:none;fill-rule:nonzero;fill:rgb(14.901961%,20.784314%,46.27451%);fill-opacity:1;" d="M 54.257812 15.558594 C 54.25 14.863281 54.371094 14.175781 54.617188 13.523438 C 54.859375 12.9375 55.226562 12.40625 55.6875 11.96875 C 56.171875 11.535156 56.738281 11.210938 57.355469 11.011719 C 58.039062 10.753906 58.765625 10.632812 59.496094 10.652344 C 60.226562 10.652344 60.949219 10.773438 61.640625 11.011719 C 62.234375 11.257812 62.792969 11.578125 63.308594 11.96875 C 63.769531 12.40625 64.132812 12.9375 64.378906 13.523438 C 64.851562 14.839844 64.851562 16.277344 64.378906 17.59375 C 64.132812 18.179688 63.769531 18.710938 63.308594 19.148438 C 62.824219 19.582031 62.257812 19.90625 61.640625 20.105469 C 60.957031 20.363281 60.226562 20.484375 59.496094 20.464844 C 58.769531 20.464844 58.046875 20.339844 57.355469 20.105469 C 56.761719 19.859375 56.199219 19.539062 55.6875 19.148438 C 55.226562 18.710938 54.859375 18.179688 54.617188 17.59375 C 54.371094 16.941406 54.25 16.253906 54.257812 15.558594 M 56.519531 15.558594 C 56.53125 15.96875 56.613281 16.371094 56.757812 16.753906 C 57.011719 17.484375 57.582031 18.058594 58.308594 18.3125 C 58.691406 18.449219 59.089844 18.527344 59.496094 18.550781 C 59.90625 18.539062 60.308594 18.457031 60.6875 18.3125 C 61.414062 18.058594 61.984375 17.484375 62.234375 16.753906 C 62.382812 16.371094 62.464844 15.96875 62.472656 15.558594 C 62.464844 15.148438 62.382812 14.742188 62.234375 14.363281 C 61.984375 13.632812 61.414062 13.058594 60.6875 12.804688 C 60.304688 12.667969 59.902344 12.589844 59.496094 12.566406 C 59.089844 12.578125 58.6875 12.660156 58.308594 12.804688 C 57.582031 13.058594 57.011719 13.632812 56.757812 14.363281 C 56.554688 14.726562 56.472656 15.144531 56.519531 15.558594 "/>
<path style=" stroke:none;fill-rule:nonzero;fill:rgb(14.901961%,20.784314%,46.27451%);fill-opacity:1;" d="M 144.507812 67.140625 C 144.519531 66.730469 144.601562 66.328125 144.746094 65.945312 C 144.875 65.554688 145.125 65.21875 145.460938 64.988281 C 145.757812 64.71875 146.074219 64.480469 146.414062 64.269531 C 146.796875 64.132812 147.199219 64.050781 147.605469 64.027344 C 148.011719 64.039062 148.414062 64.121094 148.792969 64.269531 C 149.152344 64.394531 149.476562 64.601562 149.746094 64.867188 C 150.011719 65.164062 150.253906 65.484375 150.460938 65.824219 C 150.597656 66.210938 150.679688 66.613281 150.699219 67.019531 C 150.6875 67.429688 150.609375 67.835938 150.460938 68.21875 C 150.335938 68.605469 150.082031 68.945312 149.746094 69.175781 C 149.453125 69.441406 149.132812 69.683594 148.792969 69.894531 C 148.410156 70.03125 148.011719 70.109375 147.605469 70.132812 C 147.195312 70.121094 146.792969 70.042969 146.414062 69.894531 C 146.054688 69.765625 145.730469 69.5625 145.460938 69.296875 C 145.195312 69 144.957031 68.679688 144.746094 68.335938 C 144.601562 67.957031 144.519531 67.550781 144.507812 67.140625 M 145.105469 67.140625 C 145.125 67.511719 145.207031 67.875 145.339844 68.21875 C 145.644531 68.84375 146.148438 69.347656 146.769531 69.652344 C 147.449219 69.972656 148.234375 69.972656 148.914062 69.652344 C 149.535156 69.347656 150.039062 68.84375 150.34375 68.21875 C 150.660156 67.535156 150.660156 66.746094 150.34375 66.0625 C 150.039062 65.4375 149.535156 64.933594 148.914062 64.628906 C 148.234375 64.308594 147.449219 64.308594 146.769531 64.628906 C 146.148438 64.933594 145.644531 65.4375 145.339844 66.0625 C 145.152344 66.386719 145.066406 66.765625 145.105469 67.140625 M 146.53125 65.347656 L 147.84375 65.347656 C 148.175781 65.335938 148.503906 65.421875 148.792969 65.585938 C 149.050781 65.78125 149.1875 66.101562 149.152344 66.421875 C 149.167969 66.683594 149.082031 66.941406 148.914062 67.140625 C 148.703125 67.292969 148.457031 67.375 148.199219 67.378906 L 149.269531 68.9375 L 148.675781 68.9375 L 147.722656 67.378906 L 147.128906 67.378906 L 147.128906 68.9375 L 146.652344 68.9375 L 146.652344 65.347656 Z M 147.007812 67.019531 L 147.960938 67.019531 C 148.09375 67.039062 148.222656 66.992188 148.316406 66.902344 C 148.4375 66.902344 148.4375 66.78125 148.554688 66.78125 C 148.675781 66.78125 148.675781 66.542969 148.675781 66.421875 C 148.691406 66.292969 148.648438 66.160156 148.554688 66.0625 C 148.554688 65.945312 148.4375 65.945312 148.316406 65.945312 C 148.199219 65.945312 148.199219 65.824219 148.082031 65.824219 L 147.007812 65.824219 Z M 147.007812 67.019531 "/>
</g>
</svg>
