<?xml version="1.0" encoding="UTF-8"?>
<svg xmlns="http://www.w3.org/2000/svg" xmlns:xlink="http://www.w3.org/1999/xlink" width="190px" height="56px" viewBox="0 0 192 56" version="1.1">
<g id="surface1">
<path style=" stroke:none;fill-rule:nonzero;fill:rgb(17.254902%,17.647059%,44.705882%);fill-opacity:1;" d="M 79.628906 33.792969 L 79.628906 25.953125 L 70.929688 25.953125 L 70.929688 48.457031 C 70.929688 49.40625 69.15625 50.152344 67.816406 50.152344 C 66.472656 50.152344 65.011719 49.425781 65.011719 48.457031 L 65.011719 46.5625 C 65.015625 46.546875 65.015625 46.53125 65.011719 46.511719 L 65.011719 46.46875 C 65.011719 43.890625 62.675781 41.808594 59.835938 41.808594 L 57.117188 41.808594 L 57.117188 46.738281 C 57.117188 48.273438 57.628906 49.765625 58.566406 50.976562 C 60.472656 53.484375 64.15625 54.925781 67.84375 54.925781 C 73.285156 54.925781 79.65625 51.796875 79.65625 46.738281 Z M 79.628906 33.792969 "/>
<path style=" stroke:none;fill-rule:nonzero;fill:rgb(17.254902%,17.647059%,44.705882%);fill-opacity:1;" d="M 182.910156 41.839844 L 180.46875 38.445312 L 184.75 32.613281 L 187.265625 29.121094 L 189.527344 25.953125 L 183.511719 25.953125 C 182.132812 25.972656 180.859375 26.703125 180.140625 27.878906 L 176.480469 32.867188 L 173.488281 28.691406 C 172.128906 26.929688 170.011719 25.914062 167.785156 25.953125 L 161.066406 25.953125 L 162.601562 28.125 L 169.769531 38.128906 L 171.21875 40.128906 L 166.007812 47.375 L 163.507812 50.867188 L 161.261719 53.976562 L 167.277344 53.976562 C 168.472656 54 169.609375 53.464844 170.359375 52.527344 L 170.402344 52.46875 L 175.265625 45.65625 L 179.070312 50.933594 C 180.394531 52.859375 182.59375 53.996094 184.933594 53.964844 L 191.628906 53.964844 L 190.09375 51.789062 Z M 182.910156 41.839844 "/>
<path style=" stroke:none;fill-rule:nonzero;fill:rgb(17.254902%,17.647059%,44.705882%);fill-opacity:1;" d="M 141.375 53.382812 L 139.105469 41.597656 L 137.097656 31.164062 L 136.621094 28.640625 L 136.105469 25.960938 L 131.882812 25.960938 C 129.792969 25.9375 127.898438 27.171875 127.078125 29.089844 L 127.027344 29.222656 C 127.027344 29.242188 127.027344 29.265625 127.027344 29.285156 L 123.574219 38.410156 C 123.503906 38.605469 123.3125 38.734375 123.105469 38.730469 C 122.894531 38.734375 122.707031 38.613281 122.625 38.417969 L 118.808594 29.089844 C 117.976562 27.1875 116.085938 25.960938 114.007812 25.980469 L 109.945312 25.980469 L 109.507812 28.265625 L 108.863281 31.605469 L 105.847656 47.28125 L 104.675781 53.40625 L 104.558594 54 L 106.804688 54 C 108.574219 54.046875 110.121094 52.828125 110.496094 51.101562 L 112.90625 38.554688 C 112.964844 38.300781 113.191406 38.125 113.453125 38.136719 C 113.691406 38.128906 113.90625 38.28125 113.988281 38.503906 L 119.953125 53.09375 C 120.207031 53.757812 120.851562 54.1875 121.5625 54.167969 C 122.238281 54.179688 122.859375 53.789062 123.140625 53.171875 L 128.648438 38.410156 C 128.746094 38.210938 128.949219 38.085938 129.171875 38.09375 C 129.433594 38.085938 129.664062 38.265625 129.722656 38.519531 L 131.671875 48.664062 C 132.148438 51.667969 134.996094 53.976562 138.433594 53.976562 L 141.46875 53.976562 Z M 141.375 53.382812 "/>
<path style=" stroke:none;fill-rule:nonzero;fill:rgb(17.254902%,17.647059%,44.705882%);fill-opacity:1;" d="M 151.949219 29.945312 L 160.195312 29.945312 L 160.195312 25.953125 L 146.898438 25.953125 C 144.550781 25.871094 142.558594 27.667969 142.40625 30.011719 L 142.40625 49.917969 C 142.414062 50.519531 142.5625 51.109375 142.839844 51.644531 C 143.636719 53.066406 145.136719 53.953125 146.765625 53.972656 L 160.167969 53.972656 L 160.167969 50.007812 L 151.949219 50.007812 C 151.222656 50.039062 150.609375 49.480469 150.574219 48.753906 L 150.574219 42.605469 C 150.597656 42.140625 150.996094 41.785156 151.464844 41.808594 L 156.863281 41.808594 C 158.59375 41.878906 160.0625 40.558594 160.175781 38.832031 C 160.175781 38.832031 160.175781 38.832031 160.175781 38.78125 C 160.175781 38.730469 160.175781 38.78125 160.175781 38.730469 L 160.175781 38.078125 L 151.476562 38.078125 C 151.011719 38.101562 150.613281 37.746094 150.585938 37.28125 L 150.585938 31.199219 C 150.621094 30.472656 151.238281 29.914062 151.964844 29.945312 "/>
<path style=" stroke:none;fill-rule:nonzero;fill:rgb(17.254902%,17.647059%,44.705882%);fill-opacity:1;" d="M 104.21875 30.65625 C 104.222656 30.601562 104.222656 30.550781 104.21875 30.496094 L 104.21875 25.953125 L 95.746094 25.953125 L 95.746094 48.46875 C 95.746094 49.5625 94.296875 50.152344 93.101562 50.152344 C 91.90625 50.152344 90.28125 49.5625 90.28125 48.46875 L 90.28125 30.589844 C 90.238281 28.0625 88.011719 26.023438 85.207031 25.960938 L 81.757812 25.960938 L 81.757812 46.738281 C 81.757812 51.8125 87.398438 54.925781 92.839844 54.925781 C 98.28125 54.925781 104.167969 51.796875 104.167969 46.738281 Z M 104.21875 30.65625 "/>
<path style=" stroke:none;fill-rule:nonzero;fill:rgb(17.254902%,17.647059%,44.705882%);fill-opacity:1;" d="M 113.820312 22.15625 C 117.65625 22.15625 121.792969 20.175781 121.792969 16.964844 L 121.792969 3.355469 L 116.210938 3.355469 L 116.210938 18.117188 C 116.210938 19.003906 115.074219 19.53125 113.980469 19.53125 C 113.03125 19.53125 111.625 19.082031 111.625 18.117188 L 111.625 6.175781 C 111.625 4.636719 110.109375 3.398438 108.242188 3.355469 L 106.03125 3.355469 L 106.03125 16.964844 C 106.03125 20.175781 110.074219 22.15625 113.820312 22.15625 Z M 113.820312 22.15625 "/>
<path style=" stroke:none;fill-rule:nonzero;fill:rgb(17.254902%,17.647059%,44.705882%);fill-opacity:1;" d="M 80.460938 19.097656 L 80.722656 20.074219 C 80.832031 20.632812 81.308594 21.835938 83.5625 21.683594 L 83.5625 12.097656 L 76.894531 12.097656 L 76.894531 15.21875 L 79.476562 15.21875 L 79.351562 15.792969 C 78.90625 17.28125 77.550781 18.3125 75.996094 18.34375 C 74.136719 18.34375 71.917969 17.371094 71.917969 12.761719 C 71.917969 8.890625 73.25 6.761719 75.664062 6.761719 C 77.167969 6.707031 78.515625 7.691406 78.910156 9.144531 L 83.257812 9.144531 C 82.492188 5.347656 79.707031 3.09375 75.757812 3.09375 C 70.628906 3.09375 67.316406 6.898438 67.316406 12.785156 C 67.316406 19.589844 71.503906 22.003906 75.089844 22.003906 C 76.921875 22.113281 78.691406 21.328125 79.839844 19.894531 Z M 80.460938 19.097656 "/>
<path style=" stroke:none;fill-rule:nonzero;fill:rgb(17.254902%,17.647059%,44.705882%);fill-opacity:1;" d="M 97.882812 18.980469 C 97.800781 19.90625 98.179688 20.816406 98.898438 21.410156 C 99.980469 22.191406 101.652344 21.980469 102.246094 21.863281 L 102.246094 18.117188 C 102.246094 14.601562 101.328125 14.226562 99.660156 13.546875 L 98.429688 13.046875 L 99.703125 12.652344 C 101.304688 12.167969 102.226562 10.652344 102.226562 8.492188 C 102.226562 5.472656 101.042969 3.601562 95.160156 3.601562 L 87.59375 3.601562 L 87.59375 21.894531 L 92.195312 21.894531 L 92.195312 14.945312 L 94.371094 14.945312 C 97.328125 14.945312 97.882812 16.363281 97.882812 18.980469 Z M 92.195312 7.058594 L 95.3125 7.058594 C 97.007812 7.058594 98.066406 7.992188 98.066406 9.5 C 98.066406 11.753906 95.6875 11.753906 94.914062 11.753906 L 92.195312 11.753906 Z M 92.195312 7.058594 "/>
<path style=" stroke:none;fill-rule:nonzero;fill:rgb(17.254902%,17.647059%,44.705882%);fill-opacity:1;" d="M 133.433594 3.625 L 125.699219 3.625 L 125.699219 21.9375 C 126.425781 22.003906 128.359375 22.066406 129.484375 21.15625 C 130.035156 20.691406 130.339844 19.996094 130.300781 19.277344 L 130.300781 15.652344 L 133.621094 15.652344 C 137.933594 15.652344 140.214844 13.523438 140.214844 9.5 C 140.246094 5.695312 137.800781 3.625 133.433594 3.625 Z M 133.121094 12.210938 L 130.300781 12.210938 L 130.300781 7.058594 L 132.390625 7.058594 C 135.417969 7.058594 135.875 8.601562 135.875 9.523438 C 135.894531 11.246094 134.894531 12.195312 133.121094 12.195312 Z M 133.121094 12.210938 "/>
<path style=" stroke:none;fill-rule:nonzero;fill:rgb(17.254902%,17.647059%,44.705882%);fill-opacity:1;" d="M 150.832031 3.109375 C 145.761719 3.109375 142.390625 6.847656 142.390625 12.40625 C 142.390625 18.335938 145.628906 22.015625 150.832031 22.015625 C 156.035156 22.015625 159.304688 18.269531 159.304688 12.457031 C 159.304688 7.804688 156.6875 3.109375 150.832031 3.109375 Z M 150.832031 18.328125 C 147.367188 18.328125 146.992188 14.203125 146.992188 12.429688 C 146.992188 11.09375 147.265625 6.746094 150.78125 6.746094 C 151.625 6.699219 152.449219 6.996094 153.066406 7.574219 C 154.109375 8.53125 154.703125 10.296875 154.703125 12.429688 C 154.738281 16.261719 153.328125 18.359375 150.832031 18.359375 Z M 150.832031 18.328125 "/>
<path style=" stroke:none;fill-rule:nonzero;fill:rgb(17.254902%,17.647059%,44.705882%);fill-opacity:1;" d="M 47.609375 29.800781 C 47.640625 34.953125 45.605469 39.902344 41.960938 43.546875 C 38.316406 47.191406 33.367188 49.222656 28.214844 49.195312 C 17.34375 49.195312 9.125 41.011719 8.503906 29.800781 C 8.222656 25.488281 9.09375 21.175781 11.019531 17.304688 C 11.019531 17.304688 12.511719 17.488281 16.367188 19.269531 C 19.9375 20.921875 23.390625 23.953125 23.390625 29.503906 C 23.390625 35.054688 19.214844 41.96875 28.96875 43.410156 C 46.632812 46.035156 47.609375 29.800781 47.609375 29.800781 Z M 47.609375 29.800781 "/>
<path style=" stroke:none;fill-rule:nonzero;fill:rgb(15.294118%,65.490196%,22.352941%);fill-opacity:1;" d="M 25.011719 40.714844 C 25.011719 40.714844 37.644531 43.332031 36.070312 16.074219 C 35.160156 -0.144531 47.167969 0 47.167969 0 L 47.167969 25.683594 C 47.167969 25.683594 44.90625 47.398438 25.011719 40.714844 Z M 25.011719 40.714844 "/>
<path style=" stroke:none;fill-rule:nonzero;fill:rgb(17.254902%,17.647059%,44.705882%);fill-opacity:1;" d="M 54.480469 33.335938 C 54.480469 33.140625 54.546875 32.945312 54.566406 32.75 C 54.625 32.351562 54.660156 31.945312 54.699219 31.546875 C 54.699219 31.359375 54.734375 31.179688 54.75 30.988281 C 54.75 30.402344 54.8125 29.816406 54.8125 29.226562 C 54.8125 28.726562 54.8125 28.226562 54.761719 27.726562 C 54.761719 27.648438 54.761719 27.5625 54.761719 27.472656 C 54.421875 22.136719 52.457031 17.027344 49.132812 12.835938 C 48.972656 12.636719 48.6875 12.601562 48.488281 12.753906 C 48.289062 12.90625 48.253906 13.191406 48.40625 13.386719 C 49.34375 14.574219 50.175781 15.839844 50.894531 17.167969 C 52.601562 20.378906 53.605469 23.914062 53.84375 27.539062 C 53.84375 27.625 53.84375 27.707031 53.84375 27.785156 C 53.84375 28.273438 53.886719 28.75 53.886719 29.234375 C 53.886719 29.695312 53.871094 30.152344 53.84375 30.605469 C 53.84375 30.699219 53.84375 30.792969 53.84375 30.886719 C 53.84375 31.324219 53.777344 31.757812 53.726562 32.191406 C 53.726562 32.285156 53.726562 32.375 53.691406 32.46875 C 53.648438 32.835938 53.589844 33.191406 53.523438 33.578125 C 53.523438 33.679688 53.523438 33.773438 53.472656 33.875 C 53.40625 34.257812 53.320312 34.640625 53.234375 35.027344 C 51.40625 42.648438 46.246094 49.046875 39.179688 52.449219 L 38.855469 52.601562 C 38.574219 52.738281 38.289062 52.863281 38.007812 52.984375 L 37.464844 53.203125 L 36.738281 53.484375 L 35.628906 53.863281 L 35.417969 53.925781 C 34.941406 54.070312 34.457031 54.203125 33.96875 54.324219 L 33.710938 54.355469 C 33.304688 54.449219 32.90625 54.535156 32.5 54.617188 L 32.144531 54.671875 C 31.765625 54.738281 31.382812 54.796875 31.007812 54.847656 L 30.609375 54.898438 C 30.230469 54.941406 29.882812 54.972656 29.46875 55 L 29.085938 55 C 28.601562 55.027344 28.101562 55.042969 27.585938 55.042969 C 13.089844 55.042969 1.277344 43.449219 1.277344 29.164062 C 1.277344 14.878906 13.082031 3.339844 27.59375 3.339844 C 28.054688 3.339844 28.519531 3.339844 28.984375 3.382812 L 29.324219 3.382812 C 29.75 3.382812 30.171875 3.421875 30.585938 3.492188 L 30.714844 3.492188 C 31.179688 3.550781 31.636719 3.617188 32.09375 3.695312 L 32.410156 3.753906 C 32.789062 3.820312 33.136719 3.898438 33.542969 3.984375 C 34.359375 4.164062 35.167969 4.386719 35.964844 4.652344 C 36.199219 4.734375 36.457031 4.605469 36.535156 4.371094 C 36.617188 4.132812 36.488281 3.878906 36.253906 3.796875 C 35.527344 3.550781 34.730469 3.339844 33.957031 3.152344 L 33.773438 3.109375 C 33.367188 3.050781 32.984375 2.972656 32.570312 2.898438 L 32.261719 2.839844 C 31.78125 2.761719 31.308594 2.6875 30.808594 2.628906 L 30.6875 2.628906 C 30.246094 2.578125 29.808594 2.542969 29.375 2.515625 L 29.011719 2.515625 C 28.535156 2.515625 28.054688 2.472656 27.5625 2.472656 C 12.582031 2.441406 0.371094 14.496094 0.371094 29.222656 C 0.371094 43.949219 12.582031 56 27.59375 56 C 28.113281 56 28.628906 56 29.152344 55.949219 L 29.535156 55.949219 C 29.933594 55.949219 30.332031 55.890625 30.722656 55.847656 L 31.121094 55.796875 C 31.519531 55.746094 31.917969 55.679688 32.316406 55.617188 L 32.664062 55.550781 C 33.101562 55.472656 33.527344 55.382812 33.949219 55.28125 L 34.195312 55.222656 C 34.703125 55.101562 35.210938 54.964844 35.703125 54.8125 L 35.832031 54.769531 C 36.253906 54.636719 36.667969 54.5 37.070312 54.347656 L 37.796875 54.078125 L 38.40625 53.824219 C 38.6875 53.710938 38.972656 53.578125 39.246094 53.457031 L 39.628906 53.269531 C 39.855469 53.160156 40.074219 53.066406 40.289062 52.949219 C 40.289062 52.949219 40.324219 52.949219 40.339844 52.949219 C 47.164062 49.371094 52.136719 43.050781 54 35.578125 C 54.019531 35.542969 54.035156 35.503906 54.046875 35.46875 C 54.046875 35.324219 54.101562 35.179688 54.140625 35.035156 C 54.175781 34.886719 54.210938 34.699219 54.242188 34.535156 C 54.34375 34.136719 54.414062 33.734375 54.480469 33.335938 Z M 54.480469 33.335938 "/>
<path style=" stroke:none;fill-rule:nonzero;fill:rgb(17.254902%,17.647059%,44.705882%);fill-opacity:1;" d="M 52.140625 11.597656 C 51.835938 11.46875 51.5625 11.289062 51.328125 11.058594 C 51.097656 10.828125 50.910156 10.558594 50.777344 10.261719 C 50.644531 9.953125 50.578125 9.621094 50.574219 9.285156 C 50.574219 8.945312 50.644531 8.613281 50.777344 8.304688 C 50.902344 8.003906 51.089844 7.734375 51.328125 7.507812 C 51.554688 7.269531 51.832031 7.085938 52.140625 6.964844 C 52.777344 6.703125 53.488281 6.703125 54.125 6.964844 C 54.429688 7.085938 54.707031 7.273438 54.9375 7.507812 C 55.175781 7.730469 55.359375 8.003906 55.480469 8.304688 C 55.617188 8.613281 55.6875 8.945312 55.683594 9.285156 C 55.675781 9.628906 55.597656 9.972656 55.453125 10.285156 C 55.324219 10.582031 55.136719 10.851562 54.90625 11.082031 C 54.671875 11.308594 54.398438 11.488281 54.097656 11.617188 C 53.460938 11.878906 52.746094 11.878906 52.109375 11.617188 Z M 51.710938 7.878906 C 51.324219 8.25 51.101562 8.765625 51.101562 9.304688 C 51.101562 9.828125 51.3125 10.332031 51.691406 10.695312 C 52.480469 11.46875 53.742188 11.46875 54.53125 10.695312 C 54.90625 10.332031 55.117188 9.828125 55.117188 9.304688 C 55.117188 8.777344 54.90625 8.269531 54.53125 7.898438 C 53.738281 7.136719 52.484375 7.136719 51.691406 7.898438 Z M 54.210938 10.710938 L 53.703125 10.710938 L 52.980469 9.742188 L 52.648438 9.742188 L 52.648438 10.710938 L 52.191406 10.710938 L 52.191406 7.878906 L 53.050781 7.878906 C 53.433594 7.878906 53.773438 8.105469 53.929688 8.449219 C 54.085938 8.796875 54.027344 9.199219 53.777344 9.488281 C 53.6875 9.585938 53.570312 9.660156 53.445312 9.695312 Z M 53.046875 9.339844 C 53.199219 9.355469 53.355469 9.300781 53.464844 9.191406 C 53.640625 8.957031 53.640625 8.640625 53.464844 8.40625 C 53.355469 8.296875 53.199219 8.242188 53.046875 8.253906 L 52.640625 8.253906 L 52.640625 9.339844 Z M 53.046875 9.339844 "/>
</g>
</svg>
